<mxfile host="app.diagrams.net" agent="Mozilla/5.0 (Windows NT 10.0; Win64; x64) AppleWebKit/537.36 (KHTML, like Gecko) Chrome/135.0.0.0 Safari/537.36" version="26.2.12">
  <diagram name="Page-1" id="2NcUJ0XhTfEld4eg2Uk_">
    <mxGraphModel dx="1589" dy="860" grid="1" gridSize="10" guides="1" tooltips="1" connect="1" arrows="1" fold="1" page="1" pageScale="1" pageWidth="827" pageHeight="1169" math="0" shadow="0">
      <root>
        <mxCell id="0" />
        <mxCell id="1" parent="0" />
        <mxCell id="SgM6ogKk8R4GUI8A8GDC-2" value="&lt;div&gt;&lt;font style=&quot;font-size: 10px;&quot;&gt;Usuário&amp;nbsp;&lt;/font&gt;&lt;/div&gt;&lt;div&gt;&lt;font style=&quot;font-size: 10px;&quot;&gt;(paciente)&lt;/font&gt;&lt;/div&gt;" style="shape=umlActor;verticalLabelPosition=bottom;verticalAlign=top;html=1;outlineConnect=0;" parent="1" vertex="1">
          <mxGeometry x="20" y="100" width="20" height="40" as="geometry" />
        </mxCell>
        <mxCell id="SgM6ogKk8R4GUI8A8GDC-3" value="Pesquisar profissionais disponíveis" style="ellipse;whiteSpace=wrap;html=1;" parent="1" vertex="1">
          <mxGeometry x="276.25" y="150" width="100" height="60" as="geometry" />
        </mxCell>
        <mxCell id="SgM6ogKk8R4GUI8A8GDC-4" value="Visualizar horários disponíveis" style="ellipse;whiteSpace=wrap;html=1;" parent="1" vertex="1">
          <mxGeometry x="268.75" y="360" width="92.5" height="60" as="geometry" />
        </mxCell>
        <mxCell id="SgM6ogKk8R4GUI8A8GDC-5" value="Agendar consulta" style="ellipse;whiteSpace=wrap;html=1;" parent="1" vertex="1">
          <mxGeometry x="272.5" y="460" width="86" height="60" as="geometry" />
        </mxCell>
        <mxCell id="SgM6ogKk8R4GUI8A8GDC-6" value="Gerenciar consulta agendada" style="ellipse;whiteSpace=wrap;html=1;" parent="1" vertex="1">
          <mxGeometry x="269" y="550" width="93" height="60" as="geometry" />
        </mxCell>
        <mxCell id="KDireN_5SDR_AtX7Dkdv-10" value="Acessar área&lt;div&gt;do paciente&lt;/div&gt;" style="ellipse;whiteSpace=wrap;html=1;" parent="1" vertex="1">
          <mxGeometry x="160" y="250" width="100" height="60" as="geometry" />
        </mxCell>
        <mxCell id="KDireN_5SDR_AtX7Dkdv-12" value="Receber notificação" style="ellipse;whiteSpace=wrap;html=1;" parent="1" vertex="1">
          <mxGeometry x="80" y="490" width="100" height="55" as="geometry" />
        </mxCell>
        <mxCell id="KDireN_5SDR_AtX7Dkdv-14" value="" style="endArrow=classic;html=1;rounded=0;dashed=1;exitX=0;exitY=0.5;exitDx=0;exitDy=0;" parent="1" source="SgM6ogKk8R4GUI8A8GDC-5" target="KDireN_5SDR_AtX7Dkdv-12" edge="1">
          <mxGeometry width="50" height="50" relative="1" as="geometry">
            <mxPoint x="530" y="280" as="sourcePoint" />
            <mxPoint x="630" y="310" as="targetPoint" />
          </mxGeometry>
        </mxCell>
        <mxCell id="KDireN_5SDR_AtX7Dkdv-15" value="&amp;lt;&amp;lt;include&amp;gt;&amp;gt;" style="text;html=1;align=center;verticalAlign=middle;whiteSpace=wrap;rounded=0;rotation=-15;" parent="1" vertex="1">
          <mxGeometry x="200" y="475" width="60" height="30" as="geometry" />
        </mxCell>
        <mxCell id="KDireN_5SDR_AtX7Dkdv-21" value="Avaliar&amp;nbsp;&lt;div&gt;consulta&lt;/div&gt;" style="ellipse;whiteSpace=wrap;html=1;" parent="1" vertex="1">
          <mxGeometry x="80" y="340" width="70" height="60" as="geometry" />
        </mxCell>
        <mxCell id="KDireN_5SDR_AtX7Dkdv-24" value="Profissional&amp;nbsp;&lt;div&gt;de saúde&lt;div&gt;&lt;br&gt;&lt;/div&gt;&lt;/div&gt;" style="shape=umlActor;verticalLabelPosition=bottom;verticalAlign=top;html=1;outlineConnect=0;" parent="1" vertex="1">
          <mxGeometry x="547" y="990" width="20" height="40" as="geometry" />
        </mxCell>
        <mxCell id="KDireN_5SDR_AtX7Dkdv-29" value="" style="endArrow=classic;html=1;rounded=0;dashed=1;entryX=0.5;entryY=0;entryDx=0;entryDy=0;" parent="1" source="SgM6ogKk8R4GUI8A8GDC-3" target="KDireN_5SDR_AtX7Dkdv-10" edge="1">
          <mxGeometry width="50" height="50" relative="1" as="geometry">
            <mxPoint x="390" y="146" as="sourcePoint" />
            <mxPoint x="263" y="120" as="targetPoint" />
          </mxGeometry>
        </mxCell>
        <mxCell id="KDireN_5SDR_AtX7Dkdv-30" value="" style="endArrow=classic;html=1;rounded=0;dashed=1;exitX=0;exitY=0;exitDx=0;exitDy=0;entryX=0.728;entryY=0.905;entryDx=0;entryDy=0;entryPerimeter=0;" parent="1" source="SgM6ogKk8R4GUI8A8GDC-4" target="KDireN_5SDR_AtX7Dkdv-10" edge="1">
          <mxGeometry width="50" height="50" relative="1" as="geometry">
            <mxPoint x="407" y="206" as="sourcePoint" />
            <mxPoint x="280" y="180" as="targetPoint" />
          </mxGeometry>
        </mxCell>
        <mxCell id="KDireN_5SDR_AtX7Dkdv-31" value="" style="endArrow=classic;html=1;rounded=0;dashed=1;exitX=0.5;exitY=0;exitDx=0;exitDy=0;entryX=0.5;entryY=1;entryDx=0;entryDy=0;" parent="1" source="SgM6ogKk8R4GUI8A8GDC-5" target="SgM6ogKk8R4GUI8A8GDC-4" edge="1">
          <mxGeometry width="50" height="50" relative="1" as="geometry">
            <mxPoint x="367" y="296" as="sourcePoint" />
            <mxPoint x="240" y="270" as="targetPoint" />
          </mxGeometry>
        </mxCell>
        <mxCell id="KDireN_5SDR_AtX7Dkdv-32" value="" style="endArrow=classic;html=1;rounded=0;dashed=1;exitX=0.5;exitY=0;exitDx=0;exitDy=0;entryX=0.5;entryY=1;entryDx=0;entryDy=0;" parent="1" source="SgM6ogKk8R4GUI8A8GDC-6" target="SgM6ogKk8R4GUI8A8GDC-5" edge="1">
          <mxGeometry width="50" height="50" relative="1" as="geometry">
            <mxPoint x="354" y="310" as="sourcePoint" />
            <mxPoint x="227" y="284" as="targetPoint" />
          </mxGeometry>
        </mxCell>
        <mxCell id="KDireN_5SDR_AtX7Dkdv-33" value="" style="endArrow=classic;html=1;rounded=0;dashed=1;exitX=1;exitY=0;exitDx=0;exitDy=0;entryX=0;entryY=1;entryDx=0;entryDy=0;" parent="1" source="KDireN_5SDR_AtX7Dkdv-21" target="KDireN_5SDR_AtX7Dkdv-10" edge="1">
          <mxGeometry width="50" height="50" relative="1" as="geometry">
            <mxPoint x="260" y="460.0000000000002" as="sourcePoint" />
            <mxPoint x="190" y="320.0000000000002" as="targetPoint" />
          </mxGeometry>
        </mxCell>
        <mxCell id="KDireN_5SDR_AtX7Dkdv-34" value="&amp;lt;&amp;lt;extend&amp;gt;&amp;gt;" style="text;html=1;align=center;verticalAlign=middle;whiteSpace=wrap;rounded=0;rotation=0;" parent="1" vertex="1">
          <mxGeometry x="110" y="210" width="60" height="30" as="geometry" />
        </mxCell>
        <mxCell id="KDireN_5SDR_AtX7Dkdv-36" value="&amp;lt;&amp;lt;extend&amp;gt;&amp;gt;" style="text;html=1;align=center;verticalAlign=middle;whiteSpace=wrap;rounded=0;rotation=-30;" parent="1" vertex="1">
          <mxGeometry x="212.5" y="200" width="60" height="30" as="geometry" />
        </mxCell>
        <mxCell id="KDireN_5SDR_AtX7Dkdv-37" value="&amp;lt;&amp;lt;extend&amp;gt;&amp;gt;" style="text;html=1;align=center;verticalAlign=middle;whiteSpace=wrap;rounded=0;rotation=0;" parent="1" vertex="1">
          <mxGeometry x="190" y="340" width="60" height="30" as="geometry" />
        </mxCell>
        <mxCell id="KDireN_5SDR_AtX7Dkdv-38" value="&amp;lt;&amp;lt;extend&amp;gt;&amp;gt;" style="text;html=1;align=center;verticalAlign=middle;whiteSpace=wrap;rounded=0;rotation=0;" parent="1" vertex="1">
          <mxGeometry x="320" y="520" width="60" height="30" as="geometry" />
        </mxCell>
        <mxCell id="KDireN_5SDR_AtX7Dkdv-41" value="Cancelar consulta" style="ellipse;whiteSpace=wrap;html=1;" parent="1" vertex="1">
          <mxGeometry x="120.25" y="610" width="96" height="70" as="geometry" />
        </mxCell>
        <mxCell id="KDireN_5SDR_AtX7Dkdv-42" value="" style="endArrow=classic;html=1;rounded=0;dashed=1;exitX=1;exitY=0;exitDx=0;exitDy=0;" parent="1" source="KDireN_5SDR_AtX7Dkdv-41" target="SgM6ogKk8R4GUI8A8GDC-6" edge="1">
          <mxGeometry width="50" height="50" relative="1" as="geometry">
            <mxPoint x="340" y="380" as="sourcePoint" />
            <mxPoint x="258" y="259" as="targetPoint" />
          </mxGeometry>
        </mxCell>
        <mxCell id="KDireN_5SDR_AtX7Dkdv-43" value="&amp;lt;&amp;lt;extend&amp;gt;&amp;gt;" style="text;html=1;align=center;verticalAlign=middle;whiteSpace=wrap;rounded=0;rotation=-20;" parent="1" vertex="1">
          <mxGeometry x="200" y="584" width="60" height="30" as="geometry" />
        </mxCell>
        <mxCell id="KDireN_5SDR_AtX7Dkdv-48" value="Efetuar login" style="ellipse;whiteSpace=wrap;html=1;" parent="1" vertex="1">
          <mxGeometry x="130" y="125" width="83.75" height="60" as="geometry" />
        </mxCell>
        <mxCell id="KDireN_5SDR_AtX7Dkdv-53" value="&amp;lt;&amp;lt;extend&amp;gt;&amp;gt;" style="text;html=1;align=center;verticalAlign=middle;whiteSpace=wrap;rounded=0;rotation=0;" parent="1" vertex="1">
          <mxGeometry x="326.75" y="430" width="50" height="30" as="geometry" />
        </mxCell>
        <mxCell id="KDireN_5SDR_AtX7Dkdv-54" value="Vizualizar profissionais por especialidade" style="ellipse;whiteSpace=wrap;html=1;" parent="1" vertex="1">
          <mxGeometry x="459.5" y="145" width="107.5" height="70" as="geometry" />
        </mxCell>
        <mxCell id="KDireN_5SDR_AtX7Dkdv-55" value="" style="endArrow=classic;html=1;rounded=0;dashed=1;entryX=0;entryY=0.5;entryDx=0;entryDy=0;" parent="1" source="SgM6ogKk8R4GUI8A8GDC-3" target="KDireN_5SDR_AtX7Dkdv-54" edge="1">
          <mxGeometry width="50" height="50" relative="1" as="geometry">
            <mxPoint x="400" y="160" as="sourcePoint" />
            <mxPoint x="290" y="190" as="targetPoint" />
          </mxGeometry>
        </mxCell>
        <mxCell id="KDireN_5SDR_AtX7Dkdv-56" value="&amp;lt;&amp;lt;include&amp;gt;&amp;gt;" style="text;html=1;align=center;verticalAlign=middle;whiteSpace=wrap;rounded=0;rotation=0;" parent="1" vertex="1">
          <mxGeometry x="384" y="155" width="60" height="30" as="geometry" />
        </mxCell>
        <mxCell id="bClqKCRqdzlIvXqOpH7M-1" value="Cadastrar" style="ellipse;whiteSpace=wrap;html=1;" vertex="1" parent="1">
          <mxGeometry x="130" y="60" width="82.5" height="60" as="geometry" />
        </mxCell>
        <mxCell id="bClqKCRqdzlIvXqOpH7M-3" value="" style="endArrow=classic;html=1;rounded=0;exitX=1;exitY=0.5;exitDx=0;exitDy=0;dashed=1;entryX=0;entryY=0.5;entryDx=0;entryDy=0;" edge="1" parent="1" source="bClqKCRqdzlIvXqOpH7M-1" target="bClqKCRqdzlIvXqOpH7M-4">
          <mxGeometry width="50" height="50" relative="1" as="geometry">
            <mxPoint x="390" y="200" as="sourcePoint" />
            <mxPoint x="320" y="70" as="targetPoint" />
          </mxGeometry>
        </mxCell>
        <mxCell id="bClqKCRqdzlIvXqOpH7M-4" value="Preencher dados&lt;div&gt;&amp;nbsp;do perfil&lt;/div&gt;" style="ellipse;whiteSpace=wrap;html=1;" vertex="1" parent="1">
          <mxGeometry x="292.5" y="55" width="87.5" height="70" as="geometry" />
        </mxCell>
        <mxCell id="bClqKCRqdzlIvXqOpH7M-5" value="&amp;lt;&amp;lt;include&amp;gt;&amp;gt;" style="text;html=1;align=center;verticalAlign=middle;whiteSpace=wrap;rounded=0;rotation=0;" vertex="1" parent="1">
          <mxGeometry x="230" y="60" width="46.25" height="30" as="geometry" />
        </mxCell>
        <mxCell id="bClqKCRqdzlIvXqOpH7M-6" value="&lt;font style=&quot;font-size: 10px;&quot;&gt;Banco de&amp;nbsp;&lt;/font&gt;&lt;div&gt;&lt;font style=&quot;font-size: 10px;&quot;&gt;Dados&lt;/font&gt;&lt;/div&gt;" style="shape=umlActor;verticalLabelPosition=bottom;verticalAlign=top;html=1;outlineConnect=0;" vertex="1" parent="1">
          <mxGeometry x="780" y="275" width="20" height="40" as="geometry" />
        </mxCell>
        <mxCell id="bClqKCRqdzlIvXqOpH7M-9" value="" style="endArrow=none;html=1;rounded=0;entryX=0;entryY=0.5;entryDx=0;entryDy=0;" edge="1" parent="1" target="bClqKCRqdzlIvXqOpH7M-1">
          <mxGeometry width="50" height="50" relative="1" as="geometry">
            <mxPoint x="90" y="140" as="sourcePoint" />
            <mxPoint x="130" y="90" as="targetPoint" />
            <Array as="points">
              <mxPoint x="90" y="120" />
              <mxPoint x="90" y="90" />
            </Array>
          </mxGeometry>
        </mxCell>
        <mxCell id="bClqKCRqdzlIvXqOpH7M-10" value="" style="endArrow=none;html=1;rounded=0;entryX=0;entryY=0.5;entryDx=0;entryDy=0;" edge="1" parent="1" target="KDireN_5SDR_AtX7Dkdv-48">
          <mxGeometry width="50" height="50" relative="1" as="geometry">
            <mxPoint x="90" y="140" as="sourcePoint" />
            <mxPoint x="230" y="180" as="targetPoint" />
            <Array as="points">
              <mxPoint x="90" y="155" />
            </Array>
          </mxGeometry>
        </mxCell>
        <mxCell id="bClqKCRqdzlIvXqOpH7M-11" value="" style="endArrow=none;html=1;rounded=0;" edge="1" parent="1" source="SgM6ogKk8R4GUI8A8GDC-2">
          <mxGeometry width="50" height="50" relative="1" as="geometry">
            <mxPoint x="70" y="120" as="sourcePoint" />
            <mxPoint x="90" y="120" as="targetPoint" />
          </mxGeometry>
        </mxCell>
        <mxCell id="bClqKCRqdzlIvXqOpH7M-12" value="" style="endArrow=classic;html=1;rounded=0;exitX=0;exitY=0;exitDx=0;exitDy=0;entryX=0.5;entryY=1;entryDx=0;entryDy=0;dashed=1;" edge="1" parent="1" source="KDireN_5SDR_AtX7Dkdv-10" target="KDireN_5SDR_AtX7Dkdv-48">
          <mxGeometry width="50" height="50" relative="1" as="geometry">
            <mxPoint x="180" y="305" as="sourcePoint" />
            <mxPoint x="230" y="255" as="targetPoint" />
          </mxGeometry>
        </mxCell>
        <mxCell id="bClqKCRqdzlIvXqOpH7M-14" value="&amp;lt;&amp;lt;extend&amp;gt;&amp;gt;" style="text;html=1;align=center;verticalAlign=middle;whiteSpace=wrap;rounded=0;rotation=0;" vertex="1" parent="1">
          <mxGeometry x="100" y="300" width="60" height="30" as="geometry" />
        </mxCell>
        <mxCell id="bClqKCRqdzlIvXqOpH7M-15" value="Atualizar&amp;nbsp;&lt;div&gt;dados do perfil&lt;/div&gt;" style="ellipse;whiteSpace=wrap;html=1;" vertex="1" parent="1">
          <mxGeometry x="384" y="210" width="96" height="70" as="geometry" />
        </mxCell>
        <mxCell id="bClqKCRqdzlIvXqOpH7M-16" value="&amp;lt;&amp;lt;extend&amp;gt;&amp;gt;" style="text;html=1;align=center;verticalAlign=middle;whiteSpace=wrap;rounded=0;rotation=-10;" vertex="1" parent="1">
          <mxGeometry x="290" y="230" width="60" height="30" as="geometry" />
        </mxCell>
        <mxCell id="bClqKCRqdzlIvXqOpH7M-18" value="" style="endArrow=classic;html=1;rounded=0;exitX=0;exitY=0.5;exitDx=0;exitDy=0;entryX=1;entryY=0.383;entryDx=0;entryDy=0;dashed=1;entryPerimeter=0;" edge="1" parent="1" source="bClqKCRqdzlIvXqOpH7M-15" target="KDireN_5SDR_AtX7Dkdv-10">
          <mxGeometry width="50" height="50" relative="1" as="geometry">
            <mxPoint x="360" y="350" as="sourcePoint" />
            <mxPoint x="410" y="300" as="targetPoint" />
          </mxGeometry>
        </mxCell>
        <mxCell id="bClqKCRqdzlIvXqOpH7M-23" value="Visualizar histórico de consultas" style="ellipse;whiteSpace=wrap;html=1;" vertex="1" parent="1">
          <mxGeometry x="384" y="290" width="100" height="55" as="geometry" />
        </mxCell>
        <mxCell id="bClqKCRqdzlIvXqOpH7M-24" value="" style="endArrow=classic;html=1;rounded=0;exitX=0;exitY=0.5;exitDx=0;exitDy=0;dashed=1;" edge="1" parent="1" source="bClqKCRqdzlIvXqOpH7M-23" target="KDireN_5SDR_AtX7Dkdv-10">
          <mxGeometry width="50" height="50" relative="1" as="geometry">
            <mxPoint x="150" y="390" as="sourcePoint" />
            <mxPoint x="200" y="340" as="targetPoint" />
          </mxGeometry>
        </mxCell>
        <mxCell id="bClqKCRqdzlIvXqOpH7M-25" value="&amp;lt;&amp;lt;extend&amp;gt;&amp;gt;" style="text;html=1;align=center;verticalAlign=middle;whiteSpace=wrap;rounded=0;rotation=15;" vertex="1" parent="1">
          <mxGeometry x="296.25" y="280" width="60" height="30" as="geometry" />
        </mxCell>
        <mxCell id="bClqKCRqdzlIvXqOpH7M-26" value="Cadastrar" style="ellipse;whiteSpace=wrap;html=1;" vertex="1" parent="1">
          <mxGeometry x="454" y="820" width="86" height="60" as="geometry" />
        </mxCell>
        <mxCell id="bClqKCRqdzlIvXqOpH7M-31" value="Efetuar&amp;nbsp;&lt;div&gt;login&lt;/div&gt;" style="ellipse;whiteSpace=wrap;html=1;" vertex="1" parent="1">
          <mxGeometry x="567" y="820" width="90" height="60" as="geometry" />
        </mxCell>
        <mxCell id="bClqKCRqdzlIvXqOpH7M-34" value="" style="endArrow=none;html=1;rounded=0;entryX=0.5;entryY=1;entryDx=0;entryDy=0;exitX=0.5;exitY=1;exitDx=0;exitDy=0;" edge="1" parent="1" source="bClqKCRqdzlIvXqOpH7M-26" target="bClqKCRqdzlIvXqOpH7M-31">
          <mxGeometry width="50" height="50" relative="1" as="geometry">
            <mxPoint x="520" y="980" as="sourcePoint" />
            <mxPoint x="570" y="930" as="targetPoint" />
            <Array as="points">
              <mxPoint x="497" y="920" />
              <mxPoint x="610" y="920" />
            </Array>
          </mxGeometry>
        </mxCell>
        <mxCell id="bClqKCRqdzlIvXqOpH7M-35" value="Preencher dados&lt;div&gt;&amp;nbsp;do perfil&lt;/div&gt;" style="ellipse;whiteSpace=wrap;html=1;" vertex="1" parent="1">
          <mxGeometry x="268.75" y="815" width="87.5" height="70" as="geometry" />
        </mxCell>
        <mxCell id="bClqKCRqdzlIvXqOpH7M-36" value="" style="endArrow=classic;html=1;rounded=0;exitX=0;exitY=0.5;exitDx=0;exitDy=0;entryX=1;entryY=0.5;entryDx=0;entryDy=0;dashed=1;" edge="1" parent="1" source="bClqKCRqdzlIvXqOpH7M-26" target="bClqKCRqdzlIvXqOpH7M-35">
          <mxGeometry width="50" height="50" relative="1" as="geometry">
            <mxPoint x="340" y="810" as="sourcePoint" />
            <mxPoint x="390" y="760" as="targetPoint" />
          </mxGeometry>
        </mxCell>
        <mxCell id="bClqKCRqdzlIvXqOpH7M-37" value="&amp;lt;&amp;lt;include&amp;gt;&amp;gt;" style="text;html=1;align=center;verticalAlign=middle;whiteSpace=wrap;rounded=0;rotation=0;" vertex="1" parent="1">
          <mxGeometry x="376.25" y="830" width="60" height="30" as="geometry" />
        </mxCell>
        <mxCell id="bClqKCRqdzlIvXqOpH7M-38" value="Gerenciar consulta agendada" style="ellipse;whiteSpace=wrap;html=1;" vertex="1" parent="1">
          <mxGeometry x="436.25" y="610" width="93" height="60" as="geometry" />
        </mxCell>
        <mxCell id="bClqKCRqdzlIvXqOpH7M-39" value="" style="endArrow=classic;html=1;rounded=0;exitX=1;exitY=1;exitDx=0;exitDy=0;entryX=0;entryY=0;entryDx=0;entryDy=0;dashed=1;" edge="1" parent="1" source="bClqKCRqdzlIvXqOpH7M-38" target="bClqKCRqdzlIvXqOpH7M-31">
          <mxGeometry width="50" height="50" relative="1" as="geometry">
            <mxPoint x="670" y="810" as="sourcePoint" />
            <mxPoint x="601" y="760" as="targetPoint" />
          </mxGeometry>
        </mxCell>
        <mxCell id="bClqKCRqdzlIvXqOpH7M-40" value="&amp;lt;&amp;lt;extend&amp;gt;&amp;gt;" style="text;html=1;align=center;verticalAlign=middle;whiteSpace=wrap;rounded=0;rotation=0;" vertex="1" parent="1">
          <mxGeometry x="469.25" y="700" width="60" height="30" as="geometry" />
        </mxCell>
        <mxCell id="bClqKCRqdzlIvXqOpH7M-41" value="" style="endArrow=none;html=1;rounded=0;" edge="1" parent="1">
          <mxGeometry width="50" height="50" relative="1" as="geometry">
            <mxPoint x="560" y="980" as="sourcePoint" />
            <mxPoint x="560" y="920" as="targetPoint" />
          </mxGeometry>
        </mxCell>
        <mxCell id="bClqKCRqdzlIvXqOpH7M-43" value="Visualizar histórico médico do paciente" style="ellipse;whiteSpace=wrap;html=1;" vertex="1" parent="1">
          <mxGeometry x="540" y="569" width="98" height="55" as="geometry" />
        </mxCell>
        <mxCell id="bClqKCRqdzlIvXqOpH7M-44" value="&amp;lt;&amp;lt;extend&amp;gt;&amp;gt;" style="text;html=1;align=center;verticalAlign=middle;whiteSpace=wrap;rounded=0;rotation=0;" vertex="1" parent="1">
          <mxGeometry x="540" y="630" width="50" height="30" as="geometry" />
        </mxCell>
        <mxCell id="bClqKCRqdzlIvXqOpH7M-45" value="" style="endArrow=classic;html=1;rounded=0;entryX=0.5;entryY=0;entryDx=0;entryDy=0;dashed=1;" edge="1" parent="1" source="bClqKCRqdzlIvXqOpH7M-43" target="bClqKCRqdzlIvXqOpH7M-31">
          <mxGeometry width="50" height="50" relative="1" as="geometry">
            <mxPoint x="587" y="790" as="sourcePoint" />
            <mxPoint x="622" y="830" as="targetPoint" />
          </mxGeometry>
        </mxCell>
        <mxCell id="bClqKCRqdzlIvXqOpH7M-47" value="&lt;font style=&quot;font-size: 11px;&quot;&gt;Visualizar histórico de consultas&lt;/font&gt;" style="ellipse;whiteSpace=wrap;html=1;" vertex="1" parent="1">
          <mxGeometry x="630" y="599" width="90" height="55" as="geometry" />
        </mxCell>
        <mxCell id="bClqKCRqdzlIvXqOpH7M-48" value="" style="endArrow=classic;html=1;rounded=0;entryX=1;entryY=0;entryDx=0;entryDy=0;dashed=1;exitX=0.5;exitY=1;exitDx=0;exitDy=0;" edge="1" parent="1" source="bClqKCRqdzlIvXqOpH7M-47" target="bClqKCRqdzlIvXqOpH7M-31">
          <mxGeometry width="50" height="50" relative="1" as="geometry">
            <mxPoint x="618" y="637" as="sourcePoint" />
            <mxPoint x="622" y="830" as="targetPoint" />
          </mxGeometry>
        </mxCell>
        <mxCell id="bClqKCRqdzlIvXqOpH7M-49" value="&amp;lt;&amp;lt;extend&amp;gt;&amp;gt;" style="text;html=1;align=center;verticalAlign=middle;whiteSpace=wrap;rounded=0;rotation=0;" vertex="1" parent="1">
          <mxGeometry x="610" y="654" width="60" height="30" as="geometry" />
        </mxCell>
        <mxCell id="bClqKCRqdzlIvXqOpH7M-50" value="&lt;font style=&quot;font-size: 11px;&quot;&gt;Atualizar dados do perfil&lt;/font&gt;" style="ellipse;whiteSpace=wrap;html=1;" vertex="1" parent="1">
          <mxGeometry x="670" y="675" width="80" height="55" as="geometry" />
        </mxCell>
        <mxCell id="bClqKCRqdzlIvXqOpH7M-51" value="" style="endArrow=classic;html=1;rounded=0;entryX=1;entryY=0;entryDx=0;entryDy=0;dashed=1;exitX=0;exitY=1;exitDx=0;exitDy=0;" edge="1" parent="1" source="bClqKCRqdzlIvXqOpH7M-50">
          <mxGeometry width="50" height="50" relative="1" as="geometry">
            <mxPoint x="693" y="664" as="sourcePoint" />
            <mxPoint x="654" y="839" as="targetPoint" />
          </mxGeometry>
        </mxCell>
        <mxCell id="bClqKCRqdzlIvXqOpH7M-52" value="&amp;lt;&amp;lt;extend&amp;gt;&amp;gt;" style="text;html=1;align=center;verticalAlign=middle;whiteSpace=wrap;rounded=0;rotation=0;" vertex="1" parent="1">
          <mxGeometry x="680" y="760" width="60" height="30" as="geometry" />
        </mxCell>
        <mxCell id="bClqKCRqdzlIvXqOpH7M-53" value="Cancelar consulta" style="ellipse;whiteSpace=wrap;html=1;" vertex="1" parent="1">
          <mxGeometry x="296.25" y="687" width="80.5" height="56" as="geometry" />
        </mxCell>
        <mxCell id="bClqKCRqdzlIvXqOpH7M-54" value="" style="endArrow=classic;html=1;rounded=0;exitX=0;exitY=1;exitDx=0;exitDy=0;dashed=1;" edge="1" parent="1" source="bClqKCRqdzlIvXqOpH7M-38" target="bClqKCRqdzlIvXqOpH7M-53">
          <mxGeometry width="50" height="50" relative="1" as="geometry">
            <mxPoint x="526" y="671" as="sourcePoint" />
            <mxPoint x="590" y="839" as="targetPoint" />
          </mxGeometry>
        </mxCell>
        <mxCell id="bClqKCRqdzlIvXqOpH7M-55" value="&amp;lt;&amp;lt;extend&amp;gt;&amp;gt;" style="text;html=1;align=center;verticalAlign=middle;whiteSpace=wrap;rounded=0;rotation=-28;" vertex="1" parent="1">
          <mxGeometry x="376.25" y="654" width="60" height="30" as="geometry" />
        </mxCell>
        <mxCell id="bClqKCRqdzlIvXqOpH7M-57" value="Preencher histórico médico" style="ellipse;whiteSpace=wrap;html=1;" vertex="1" parent="1">
          <mxGeometry x="394" y="365" width="100" height="55" as="geometry" />
        </mxCell>
        <mxCell id="bClqKCRqdzlIvXqOpH7M-58" value="" style="endArrow=classic;html=1;rounded=0;exitX=0;exitY=0;exitDx=0;exitDy=0;dashed=1;entryX=1;entryY=1;entryDx=0;entryDy=0;" edge="1" parent="1" source="bClqKCRqdzlIvXqOpH7M-57" target="KDireN_5SDR_AtX7Dkdv-10">
          <mxGeometry width="50" height="50" relative="1" as="geometry">
            <mxPoint x="394" y="328" as="sourcePoint" />
            <mxPoint x="267" y="300" as="targetPoint" />
          </mxGeometry>
        </mxCell>
        <mxCell id="bClqKCRqdzlIvXqOpH7M-59" value="&amp;lt;&amp;lt;extend&amp;gt;&amp;gt;" style="text;html=1;align=center;verticalAlign=middle;whiteSpace=wrap;rounded=0;rotation=15;" vertex="1" parent="1">
          <mxGeometry x="306.25" y="315" width="60" height="30" as="geometry" />
        </mxCell>
        <mxCell id="bClqKCRqdzlIvXqOpH7M-60" value="" style="endArrow=none;html=1;rounded=0;entryX=1;entryY=0.5;entryDx=0;entryDy=0;" edge="1" parent="1" target="KDireN_5SDR_AtX7Dkdv-54">
          <mxGeometry width="50" height="50" relative="1" as="geometry">
            <mxPoint x="680" y="180" as="sourcePoint" />
            <mxPoint x="430" y="210" as="targetPoint" />
          </mxGeometry>
        </mxCell>
        <mxCell id="bClqKCRqdzlIvXqOpH7M-61" value="" style="endArrow=none;html=1;rounded=0;entryX=1;entryY=0.5;entryDx=0;entryDy=0;" edge="1" parent="1" target="bClqKCRqdzlIvXqOpH7M-4">
          <mxGeometry width="50" height="50" relative="1" as="geometry">
            <mxPoint x="680" y="90" as="sourcePoint" />
            <mxPoint x="430" y="210" as="targetPoint" />
          </mxGeometry>
        </mxCell>
        <mxCell id="bClqKCRqdzlIvXqOpH7M-62" value="" style="endArrow=none;html=1;rounded=0;entryX=1;entryY=0.5;entryDx=0;entryDy=0;" edge="1" parent="1" target="bClqKCRqdzlIvXqOpH7M-15">
          <mxGeometry width="50" height="50" relative="1" as="geometry">
            <mxPoint x="680" y="245" as="sourcePoint" />
            <mxPoint x="430" y="210" as="targetPoint" />
          </mxGeometry>
        </mxCell>
        <mxCell id="bClqKCRqdzlIvXqOpH7M-63" value="" style="endArrow=none;html=1;rounded=0;entryX=1;entryY=0.5;entryDx=0;entryDy=0;" edge="1" parent="1" target="bClqKCRqdzlIvXqOpH7M-23">
          <mxGeometry width="50" height="50" relative="1" as="geometry">
            <mxPoint x="680" y="318" as="sourcePoint" />
            <mxPoint x="430" y="210" as="targetPoint" />
          </mxGeometry>
        </mxCell>
        <mxCell id="bClqKCRqdzlIvXqOpH7M-64" value="" style="endArrow=none;html=1;rounded=0;entryX=1;entryY=0.5;entryDx=0;entryDy=0;" edge="1" parent="1" target="bClqKCRqdzlIvXqOpH7M-57">
          <mxGeometry width="50" height="50" relative="1" as="geometry">
            <mxPoint x="680" y="393" as="sourcePoint" />
            <mxPoint x="430" y="210" as="targetPoint" />
          </mxGeometry>
        </mxCell>
        <mxCell id="bClqKCRqdzlIvXqOpH7M-65" value="" style="endArrow=none;html=1;rounded=0;exitX=1;exitY=1;exitDx=0;exitDy=0;" edge="1" parent="1" source="SgM6ogKk8R4GUI8A8GDC-4">
          <mxGeometry width="50" height="50" relative="1" as="geometry">
            <mxPoint x="380" y="370" as="sourcePoint" />
            <mxPoint x="680" y="440" as="targetPoint" />
            <Array as="points">
              <mxPoint x="440" y="440" />
            </Array>
          </mxGeometry>
        </mxCell>
        <mxCell id="bClqKCRqdzlIvXqOpH7M-66" value="" style="endArrow=none;html=1;rounded=0;entryX=1;entryY=0;entryDx=0;entryDy=0;" edge="1" parent="1" target="bClqKCRqdzlIvXqOpH7M-50">
          <mxGeometry width="50" height="50" relative="1" as="geometry">
            <mxPoint x="740" y="460" as="sourcePoint" />
            <mxPoint x="430" y="540" as="targetPoint" />
          </mxGeometry>
        </mxCell>
        <mxCell id="bClqKCRqdzlIvXqOpH7M-67" value="" style="endArrow=none;html=1;rounded=0;entryX=0.5;entryY=0;entryDx=0;entryDy=0;" edge="1" parent="1" target="bClqKCRqdzlIvXqOpH7M-47">
          <mxGeometry width="50" height="50" relative="1" as="geometry">
            <mxPoint x="720" y="460" as="sourcePoint" />
            <mxPoint x="430" y="540" as="targetPoint" />
          </mxGeometry>
        </mxCell>
        <mxCell id="bClqKCRqdzlIvXqOpH7M-68" value="" style="endArrow=none;html=1;rounded=0;exitX=0.5;exitY=0;exitDx=0;exitDy=0;" edge="1" parent="1" source="bClqKCRqdzlIvXqOpH7M-43">
          <mxGeometry width="50" height="50" relative="1" as="geometry">
            <mxPoint x="380" y="590" as="sourcePoint" />
            <mxPoint x="680" y="460" as="targetPoint" />
          </mxGeometry>
        </mxCell>
        <mxCell id="bClqKCRqdzlIvXqOpH7M-69" value="" style="endArrow=none;html=1;rounded=0;exitX=0.5;exitY=0;exitDx=0;exitDy=0;" edge="1" parent="1" source="bClqKCRqdzlIvXqOpH7M-38">
          <mxGeometry width="50" height="50" relative="1" as="geometry">
            <mxPoint x="380" y="590" as="sourcePoint" />
            <mxPoint x="680" y="450" as="targetPoint" />
          </mxGeometry>
        </mxCell>
        <mxCell id="bClqKCRqdzlIvXqOpH7M-70" value="" style="endArrow=none;html=1;rounded=0;exitX=0;exitY=0;exitDx=0;exitDy=0;" edge="1" parent="1" source="bClqKCRqdzlIvXqOpH7M-35">
          <mxGeometry width="50" height="50" relative="1" as="geometry">
            <mxPoint x="380" y="820" as="sourcePoint" />
            <mxPoint x="680" y="440" as="targetPoint" />
            <Array as="points">
              <mxPoint x="220" y="730" />
            </Array>
          </mxGeometry>
        </mxCell>
        <mxCell id="bClqKCRqdzlIvXqOpH7M-71" value="" style="endArrow=none;html=1;rounded=0;" edge="1" parent="1">
          <mxGeometry width="50" height="50" relative="1" as="geometry">
            <mxPoint x="740" y="460" as="sourcePoint" />
            <mxPoint x="680" y="90" as="targetPoint" />
            <Array as="points">
              <mxPoint x="680" y="460" />
            </Array>
          </mxGeometry>
        </mxCell>
        <mxCell id="bClqKCRqdzlIvXqOpH7M-72" value="" style="endArrow=none;html=1;rounded=0;" edge="1" parent="1">
          <mxGeometry width="50" height="50" relative="1" as="geometry">
            <mxPoint x="780" y="300" as="sourcePoint" />
            <mxPoint x="680" y="300" as="targetPoint" />
          </mxGeometry>
        </mxCell>
        <mxCell id="bClqKCRqdzlIvXqOpH7M-73" value="" style="endArrow=none;html=1;rounded=0;" edge="1" parent="1">
          <mxGeometry width="50" height="50" relative="1" as="geometry">
            <mxPoint x="760" y="960" as="sourcePoint" />
            <mxPoint x="60" y="40" as="targetPoint" />
            <Array as="points">
              <mxPoint x="60" y="960" />
            </Array>
          </mxGeometry>
        </mxCell>
        <mxCell id="bClqKCRqdzlIvXqOpH7M-74" value="" style="endArrow=none;html=1;rounded=0;" edge="1" parent="1">
          <mxGeometry width="50" height="50" relative="1" as="geometry">
            <mxPoint x="760" y="960" as="sourcePoint" />
            <mxPoint x="60" y="40" as="targetPoint" />
            <Array as="points">
              <mxPoint x="760" y="40" />
            </Array>
          </mxGeometry>
        </mxCell>
      </root>
    </mxGraphModel>
  </diagram>
</mxfile>
